<svg xmlns="http://www.w3.org/2000/svg" xmlns:xlink="http://www.w3.org/1999/xlink" viewBox="0 0 600 600" width="600" height="600" preserveAspectRatio="xMidYMid meet" style="width: 100%; height: 100%; transform: translate3d(0px, 0px, 0px); content-visibility: visible;"><defs><clipPath id="__lottie_element_2"><rect width="600" height="600" x="0" y="0"></rect></clipPath><g id="__lottie_element_39"><g transform="matrix(1.7143000364303589,0,0,1.7143000364303589,300,300)" opacity="1" style="display: block;"><g opacity="1" transform="matrix(1,0,0,1,0,0)"><path fill="rgb(255,144,65)" fill-opacity="1" d=" M79,-68.95999908447266 C79,-68.95999908447266 79,-68.94999694824219 79,-68.94999694824219 C79,-68.94999694824219 78.83000183105469,26.59000015258789 78.83000183105469,26.59000015258789 C78.83000183105469,27.049999237060547 78.58000183105469,27.479999542236328 78.18000030517578,27.709999084472656 C78.18000030517578,27.709999084472656 0.8199999928474426,72.66999816894531 0.8199999928474426,72.66999816894531 C0.7200000286102295,72.72000122070312 0.6100000143051147,72.7699966430664 0.5,72.80000305175781 C0.38999998569488525,72.83000183105469 0.2800000011920929,72.83999633789062 0.17000000178813934,72.83999633789062 C-0.05999999865889549,72.83999633789062 -0.2800000011920929,72.79000091552734 -0.47999998927116394,72.66999816894531 C-0.47999998927116394,72.66999816894531 -78.3499984741211,27.709999084472656 -78.3499984741211,27.709999084472656 C-78.76000213623047,27.479999542236328 -79.01000213623047,27.040000915527344 -79.01000213623047,26.579999923706055 C-79.01000213623047,26.579999923706055 -78.83000183105469,-68.95999908447266 -78.83000183105469,-68.95999908447266 C-78.83000183105469,-69.41999816894531 -78.58000183105469,-69.8499984741211 -78.18000030517578,-70.08999633789062 C-78.18000030517578,-70.08999633789062 -0.8299999833106995,-115.04000091552734 -0.8299999833106995,-115.04000091552734 C-0.41999998688697815,-115.2699966430664 0.07999999821186066,-115.27999877929688 0.47999998927116394,-115.04000091552734 C0.47999998927116394,-115.04000091552734 78.19999694824219,-70.16000366210938 78.19999694824219,-70.16000366210938 C78.19999694824219,-70.16000366210938 78.3499984741211,-70.08000183105469 78.3499984741211,-70.08000183105469 C78.5,-69.98999786376953 78.62999725341797,-69.87999725341797 78.7300033569336,-69.75 C78.7699966430664,-69.69999694824219 78.80000305175781,-69.6500015258789 78.81999969482422,-69.61000061035156 C78.87999725341797,-69.51000213623047 78.91999816894531,-69.41000366210938 78.94999694824219,-69.30000305175781 C78.97000122070312,-69.25 78.9800033569336,-69.20999908447266 78.9800033569336,-69.16000366210938 C78.98999786376953,-69.08999633789062 79,-69.02999877929688 79,-68.95999908447266z"></path></g></g></g><g id="__lottie_element_45"><g transform="matrix(1.7143000364303589,0,0,1.7143000364303589,300,300)" opacity="1" style="display: block;"><g opacity="1" transform="matrix(1,0,0,1,0,0)"><path fill="rgb(255,144,65)" fill-opacity="1" d=" M79,-68.95999908447266 C79,-68.95999908447266 79,-68.94999694824219 79,-68.94999694824219 C79,-68.94999694824219 78.83000183105469,26.59000015258789 78.83000183105469,26.59000015258789 C78.83000183105469,27.049999237060547 78.58000183105469,27.479999542236328 78.18000030517578,27.709999084472656 C78.18000030517578,27.709999084472656 0.8199999928474426,72.66999816894531 0.8199999928474426,72.66999816894531 C0.7200000286102295,72.72000122070312 0.6100000143051147,72.7699966430664 0.5,72.80000305175781 C0.38999998569488525,72.83000183105469 0.2800000011920929,72.83999633789062 0.17000000178813934,72.83999633789062 C-0.05999999865889549,72.83999633789062 -0.2800000011920929,72.79000091552734 -0.47999998927116394,72.66999816894531 C-0.47999998927116394,72.66999816894531 -78.3499984741211,27.709999084472656 -78.3499984741211,27.709999084472656 C-78.76000213623047,27.479999542236328 -79.01000213623047,27.040000915527344 -79.01000213623047,26.579999923706055 C-79.01000213623047,26.579999923706055 -78.83000183105469,-68.95999908447266 -78.83000183105469,-68.95999908447266 C-78.83000183105469,-69.41999816894531 -78.58000183105469,-69.8499984741211 -78.18000030517578,-70.08999633789062 C-78.18000030517578,-70.08999633789062 -0.8299999833106995,-115.04000091552734 -0.8299999833106995,-115.04000091552734 C-0.41999998688697815,-115.2699966430664 0.07999999821186066,-115.27999877929688 0.47999998927116394,-115.04000091552734 C0.47999998927116394,-115.04000091552734 78.19999694824219,-70.16000366210938 78.19999694824219,-70.16000366210938 C78.19999694824219,-70.16000366210938 78.3499984741211,-70.08000183105469 78.3499984741211,-70.08000183105469 C78.5,-69.98999786376953 78.62999725341797,-69.87999725341797 78.7300033569336,-69.75 C78.7699966430664,-69.69999694824219 78.80000305175781,-69.6500015258789 78.81999969482422,-69.61000061035156 C78.87999725341797,-69.51000213623047 78.91999816894531,-69.41000366210938 78.94999694824219,-69.30000305175781 C78.97000122070312,-69.25 78.9800033569336,-69.20999908447266 78.9800033569336,-69.16000366210938 C78.98999786376953,-69.08999633789062 79,-69.02999877929688 79,-68.95999908447266z"></path></g></g></g><mask id="__lottie_element_45_1" mask-type="alpha"><use xlink:href="#__lottie_element_45"></use></mask><mask id="__lottie_element_39_1" mask-type="alpha"><use xlink:href="#__lottie_element_39"></use></mask></defs><g clip-path="url(#__lottie_element_2)"><g transform="matrix(1.7143000364303589,0,0,1.7143000364303589,300,299.9979248046875)" opacity="1" style="display: block;"><g opacity="1" transform="matrix(1,0,0,1,0,0)"><path stroke-linecap="round" stroke-linejoin="round" fill-opacity="0" stroke="rgb(255,130,41)" stroke-opacity="1" stroke-width="1.302" d=" M-60.8489990234375,71.83899688720703 C-88.23400115966797,56.03200149536133 -116.90899658203125,39.48099899291992 -116.90899658203125,39.48099899291992 C-122.0510025024414,36.51900100708008 -125,31.78700065612793 -125,26.4950008392334 C-125,21.200000762939453 -122.07599639892578,16.468000411987305 -116.9739990234375,13.512999534606934 C-116.9739990234375,13.512999534606934 -12.619000434875488,-47.10900115966797 -12.619000434875488,-47.10900115966797 C-9.187999725341797,-49.090999603271484 -4.833000183105469,-50.180999755859375 -0.3499999940395355,-50.180999755859375 C4.170000076293945,-50.180999755859375 8.519000053405762,-49.08700180053711 11.897000312805176,-47.10200119018555 C11.897000312805176,-47.10200119018555 116.90799713134766,13.543000221252441 116.90799713134766,13.543000221252441 C122.04399871826172,16.46299934387207 125,21.18600082397461 125,26.4950008392334 C125.04000091552734,31.770999908447266 122.12799835205078,36.5099983215332 117.01100158691406,39.47800064086914 C117.01100158691406,39.47800064086914 12.649999618530273,100.0979995727539 12.649999618530273,100.0979995727539 C9.178000450134277,102.08300018310547 4.826000213623047,103.1719970703125 0.38100001215934753,103.1719970703125 C0.38100001215934753,103.1719970703125 0.38100001215934753,103.1719970703125 0.38100001215934753,103.1719970703125 C-4.060999870300293,103.1719970703125 -8.413999557495117,102.08300018310547 -11.87600040435791,100.10600280761719 C-11.87600040435791,100.10600280761719 -21.492000579833984,94.55599975585938 -34.90399932861328,86.81400299072266"></path></g></g><g transform="matrix(1.7143000364303589,0,0,1.7143000364303589,300.0036926269531,300.0003967285156)" opacity="1" style="display: block;"><g opacity="1" transform="matrix(1,0,0,1,0,0)"><path stroke-linecap="round" stroke-linejoin="round" fill-opacity="0" stroke="rgb(255,130,41)" stroke-opacity="1" stroke-width="1.302" d=" M116.1760025024414,-18.944000244140625 C111.2040023803711,-16.054000854492188 105.9800033569336,-13.017999649047852 105.9800033569336,-13.017999649047852 C105.9800033569336,-13.017999649047852 86.83499908447266,-24.07200050354004 86.83499908447266,-24.07200050354004 C86.83499908447266,-24.07200050354004 105.8550033569336,-35.125 105.8550033569336,-35.125 C105.8550033569336,-35.125 125,-24.07200050354004 125,-24.07200050354004 C125,-24.07200050354004 125,-24.07200050354004 125,-24.07200050354004 C125,-24.07200050354004 122.84700012207031,-22.820999145507812 119.98899841308594,-21.15999984741211"></path></g><g opacity="1" transform="matrix(1,0,0,1,0,0)"><path stroke-linecap="round" stroke-linejoin="round" fill-opacity="0" stroke="rgb(255,130,41)" stroke-opacity="1" stroke-width="1.302" d=" M48.055999755859375,-39.68299865722656 C55.138999938964844,-43.79899978637695 65.41000366210938,-49.766998291015625 65.41000366210938,-49.766998291015625 C65.41000366210938,-49.766998291015625 98.33799743652344,-30.756000518798828 98.33799743652344,-30.756000518798828 M41.48500061035156,-35.86399841308594 C41.48500061035156,-35.86399841308594 42.97700119018555,-36.73099899291992 45.215999603271484,-38.03200149536133"></path></g><g opacity="1" transform="matrix(1,0,0,1,0,0)"><path stroke-linecap="round" stroke-linejoin="round" fill-opacity="0" stroke="rgb(255,130,41)" stroke-opacity="1" stroke-width="1.302" d=" M-95.60399627685547,98.75299835205078 C-100.57599639892578,101.64199829101562 -105.80000305175781,104.6780014038086 -105.80000305175781,104.6780014038086 C-105.80000305175781,104.6780014038086 -124.94499969482422,93.625 -124.94499969482422,93.625 C-124.94499969482422,93.625 -105.92500305175781,82.57099914550781 -105.92500305175781,82.57099914550781 C-105.92500305175781,82.57099914550781 -86.77999877929688,93.625 -86.77999877929688,93.625 C-86.77999877929688,93.625 -86.77999877929688,93.625 -86.77999877929688,93.625 C-86.77999877929688,93.625 -88.93299865722656,94.8759994506836 -91.79100036621094,96.53700256347656"></path></g><g opacity="1" transform="matrix(1,0,0,1,0,0)"><path stroke-linecap="round" stroke-linejoin="round" fill-opacity="0" stroke="rgb(255,130,41)" stroke-opacity="1" stroke-width="1.302" d=" M-43.849998474121094,89.81300354003906 C-55.9739990234375,96.85800170898438 -79.49299621582031,110.5260009765625 -79.49299621582031,110.5260009765625 C-79.49299621582031,110.5260009765625 -97.73799896240234,99.99299621582031 -97.73799896240234,99.99299621582031 M-36.80400085449219,85.71800231933594 C-36.80400085449219,85.71800231933594 -38.33000183105469,86.6050033569336 -40.80500030517578,88.04299926757812"></path></g><g opacity="1" transform="matrix(1,0,0,1,0,0)"><path stroke-linecap="round" stroke-linejoin="round" fill-opacity="0" stroke="rgb(255,130,41)" stroke-opacity="1" stroke-width="1.302" d=" M93.35900115966797,101.86399841308594 C98.45099639892578,104.822998046875 103.8010025024414,107.93199920654297 103.8010025024414,107.93199920654297 C103.8010025024414,107.93199920654297 123.40799713134766,96.61199951171875 123.40799713134766,96.61199951171875 C123.40799713134766,96.61199951171875 103.92900085449219,85.29199981689453 103.92900085449219,85.29199981689453 C103.92900085449219,85.29199981689453 84.3219985961914,96.61199951171875 84.3219985961914,96.61199951171875 C84.3219985961914,96.61199951171875 84.3219985961914,96.61199951171875 84.3219985961914,96.61199951171875 C84.3219985961914,96.61199951171875 86.5270004272461,97.89399719238281 89.4540023803711,99.59400177001953"></path></g><g opacity="1" transform="matrix(1,0,0,1,0,0)"><path stroke-linecap="round" stroke-linejoin="round" fill-opacity="0" stroke="rgb(255,130,41)" stroke-opacity="1" stroke-width="1.302" d=" M40.356998443603516,92.70800018310547 C52.77299880981445,99.92400360107422 76.86000061035156,113.9209976196289 76.86000061035156,113.9209976196289 C76.86000061035156,113.9209976196289 95.54399871826172,103.13400268554688 95.54399871826172,103.13400268554688 M33.14099884033203,88.51499938964844 C33.14099884033203,88.51499938964844 34.70399856567383,89.4229965209961 37.237998962402344,90.89600372314453"></path></g></g><g transform="matrix(1.7143000364303589,0,0,1.7143000364303589,300.00341796875,299.9967041015625)" opacity="1" style="display: block;"><g opacity="1" transform="matrix(1,0,0,1,0,0)"><g opacity="1" transform="matrix(1,0,0,1,0,0)"><g opacity="1" transform="matrix(1,0,0,1,0,0)"><path fill="rgb(120,56,10)" fill-opacity="1" d=" M106.79100036621094,30.452999114990234 C106.79100036621094,30.452999114990234 106.3479995727539,30.70199966430664 106.3479995727539,30.70199966430664 C106.3479995727539,30.70199966430664 100.05400085449219,34.34600067138672 100.05400085449219,34.34600067138672 C100.05400085449219,34.34600067138672 7.177999973297119,88.32099914550781 7.177999973297119,88.32099914550781 C3.4230000972747803,90.50199890136719 -2.7060000896453857,90.50199890136719 -6.460000038146973,88.32099914550781 C-6.460000038146973,88.32099914550781 -100.05400085449219,34.29100036621094 -100.05400085449219,34.29100036621094 C-100.05400085449219,34.29100036621094 -106.3479995727539,30.645999908447266 -106.3479995727539,30.645999908447266 C-106.3479995727539,30.645999908447266 -106.70700073242188,30.452999114990234 -106.70700073242188,30.452999114990234 C-110.51699829101562,28.27199935913086 -110.54499816894531,24.709999084472656 -106.76300048828125,22.52899932861328 C-106.76300048828125,22.52899932861328 -7.177999973297119,-35.3380012512207 -7.177999973297119,-35.3380012512207 C-3.4240000247955322,-37.51900100708008 2.7060000896453857,-37.51900100708008 6.48799991607666,-35.3380012512207 C6.48799991607666,-35.3380012512207 106.73500061035156,22.55699920654297 106.73500061035156,22.55699920654297 C110.48899841308594,24.709999084472656 110.54499816894531,28.27199935913086 106.79100036621094,30.452999114990234z"></path></g></g><g opacity="1" transform="matrix(1,0,0,1,0,0)"><g opacity="1" transform="matrix(1,0,0,1,0,0)"><path fill="rgb(193,93,23)" fill-opacity="1" d=" M106.35399627685547,30.701000213623047 C106.35399627685547,30.701000213623047 100.052001953125,34.34700012207031 100.052001953125,34.34700012207031 C100.052001953125,34.34700012207031 87.37000274658203,41.71699905395508 87.37000274658203,41.71699905395508 C87.37000274658203,41.71699905395508 7.188000202178955,88.33100128173828 7.188000202178955,88.33100128173828 C3.4119999408721924,90.49199676513672 -2.7079999446868896,90.49199676513672 -6.458000183105469,88.33100128173828 C-6.458000183105469,88.33100128173828 -87.37000274658203,41.612998962402344 -87.37000274658203,41.612998962402344 C-87.37000274658203,41.612998962402344 -100.052001953125,34.29499816894531 -100.052001953125,34.29499816894531 C-100.052001953125,34.29499816894531 -106.35399627685547,30.64900016784668 -106.35399627685547,30.64900016784668 C-106.35399627685547,30.64900016784668 -7.188000202178955,-26.981000900268555 -7.188000202178955,-26.981000900268555 C-3.4119999408721924,-29.142000198364258 2.7079999446868896,-29.142000198364258 6.484000205993652,-26.981000900268555 C6.484000205993652,-26.981000900268555 106.35399627685547,30.701000213623047 106.35399627685547,30.701000213623047z"></path></g></g></g><g opacity="1" transform="matrix(1,0,0,1,0,0)"><g opacity="1" transform="matrix(1,0,0,1,0,0)"><g opacity="1" transform="matrix(1,0,0,1,0,0)"><path fill="rgb(255,130,41)" fill-opacity="1" d=" M89.49099731445312,29.78700065612793 C89.49099731445312,29.78700065612793 89.46499633789062,40.560001373291016 89.46499633789062,40.560001373291016 C89.46499633789062,40.560001373291016 7.360000133514404,88.29299926757812 7.360000133514404,88.29299926757812 C3.49399995803833,90.50599670410156 -2.7730000019073486,90.50599670410156 -6.61299991607666,88.29299926757812 C-6.61299991607666,88.29299926757812 -89.46499633789062,40.452999114990234 -89.46499633789062,40.452999114990234 C-89.46499633789062,40.452999114990234 -89.43800354003906,29.78700065612793 -89.43800354003906,29.78700065612793 C-89.43800354003906,30.799999237060547 -88.71900177001953,31.893999099731445 -87.35900115966797,32.66699981689453 C-87.35900115966797,32.66699981689453 -4.71999979019165,80.37300109863281 -4.71999979019165,80.37300109863281 C-1.9470000267028809,81.9729995727539 2.559999942779541,81.9729995727539 5.306000232696533,80.37300109863281 C5.306000232696533,80.37300109863281 87.41100311279297,32.66699981689453 87.41100311279297,32.66699981689453 C88.7979965209961,31.867000579833984 89.46399688720703,30.82699966430664 89.49099731445312,29.78700065612793z"></path></g></g><g opacity="1" transform="matrix(1,0,0,1,0,0)"><g opacity="1" transform="matrix(1,0,0,1,0,0)"><path fill="rgb(255,255,255)" fill-opacity="1" d=" M87.41100311279297,32.66699981689453 C87.41100311279297,32.66699981689453 5.306000232696533,80.37300109863281 5.306000232696533,80.37300109863281 C2.559999942779541,81.9729995727539 -1.9470000267028809,81.9729995727539 -4.71999979019165,80.37300109863281 C-4.71999979019165,80.37300109863281 -87.35900115966797,32.66699981689453 -87.35900115966797,32.66699981689453 C-90.13200378417969,31.066999435424805 -90.13099670410156,28.45400047302246 -87.38500213623047,26.854000091552734 C-87.38500213623047,26.854000091552734 -5.28000020980835,-20.851999282836914 -5.28000020980835,-20.851999282836914 C-2.506999969482422,-22.45199966430664 1.9730000495910645,-22.45199966430664 4.745999813079834,-20.851999282836914 C4.745999813079834,-20.851999282836914 87.38500213623047,26.854000091552734 87.38500213623047,26.854000091552734 C90.15799713134766,28.45400047302246 90.18399810791016,31.066999435424805 87.41100311279297,32.66699981689453z"></path></g></g></g></g><g transform="matrix(1.7143000364303589,0,0,1.7143000364303589,300.00341796875,300.00286865234375)" opacity="1" style="display: block;"><g opacity="1" transform="matrix(0.46896570920944214,0,0,0.46896570920944214,-0.7965514659881592,12.4793062210083)"><g opacity="1" transform="matrix(1,0,0,1,0,0)"><g opacity="1" transform="matrix(1,0,0,1,0,0)"><g opacity="1" transform="matrix(1,0,0,1,0,0)"><path fill="rgb(203,218,244)" fill-opacity="1" d=" M24.0310001373291,-16.139999389648438 C24.0310001373291,-16.139999389648438 23.959999084472656,8.890000343322754 23.959999084472656,8.890000343322754 C23.959999084472656,8.890000343322754 -0.6779999732971191,23.20800018310547 -0.6779999732971191,23.20800018310547 C-0.6779999732971191,23.20800018310547 -0.6069999933242798,-1.8220000267028809 -0.6069999933242798,-1.8220000267028809 C-0.6069999933242798,-1.8220000267028809 24.0310001373291,-16.139999389648438 24.0310001373291,-16.139999389648438z"></path></g></g><g opacity="1" transform="matrix(1,0,0,1,0,0)"><g opacity="1" transform="matrix(1,0,0,1,0,0)"><path fill="rgb(218,230,250)" fill-opacity="1" d=" M-0.6069999933242798,-1.8220000267028809 C-0.6069999933242798,-1.8220000267028809 -0.6779999732971191,23.20800018310547 -0.6779999732971191,23.20800018310547 C-0.6779999732971191,23.20800018310547 -25.47800064086914,8.890000343322754 -25.47800064086914,8.890000343322754 C-25.47800064086914,8.890000343322754 -25.406999588012695,-16.139999389648438 -25.406999588012695,-16.139999389648438 C-25.406999588012695,-16.139999389648438 -0.6069999933242798,-1.8220000267028809 -0.6069999933242798,-1.8220000267028809z"></path></g></g><g opacity="1" transform="matrix(1,0,0,1,0,0)"><g opacity="1" transform="matrix(1,0,0,1,0,0)"><path fill="rgb(255,255,255)" fill-opacity="1" d=" M24.0310001373291,-16.139999389648438 C24.0310001373291,-16.139999389648438 -0.6069999933242798,-1.8220000267028809 -0.6069999933242798,-1.8220000267028809 C-0.6069999933242798,-1.8220000267028809 -25.406999588012695,-16.139999389648438 -25.406999588012695,-16.139999389648438 C-25.406999588012695,-16.139999389648438 -0.7680000066757202,-30.45800018310547 -0.7680000066757202,-30.45800018310547 C-0.7680000066757202,-30.45800018310547 24.0310001373291,-16.139999389648438 24.0310001373291,-16.139999389648438z"></path></g></g></g></g><g opacity="1" transform="matrix(0.08539462089538574,0,0,0.08539462089538574,27.438161849975586,38.41342544555664)"><g opacity="1" transform="matrix(1,0,0,1,0,0)"><g opacity="1" transform="matrix(1,0,0,1,0,0)"><g opacity="1" transform="matrix(1,0,0,1,0,0)"><path fill="rgb(203,218,244)" fill-opacity="1" d=" M55.95600128173828,2.2920000553131104 C55.95600128173828,2.2920000553131104 55.8849983215332,27.32200050354004 55.8849983215332,27.32200050354004 C55.8849983215332,27.32200050354004 31.246999740600586,41.63999938964844 31.246999740600586,41.63999938964844 C31.246999740600586,41.63999938964844 31.31800079345703,16.610000610351562 31.31800079345703,16.610000610351562 C31.31800079345703,16.610000610351562 55.95600128173828,2.2920000553131104 55.95600128173828,2.2920000553131104z"></path></g></g><g opacity="1" transform="matrix(1,0,0,1,0,0)"><g opacity="1" transform="matrix(1,0,0,1,0,0)"><path fill="rgb(218,230,250)" fill-opacity="1" d=" M31.31800079345703,16.610000610351562 C31.31800079345703,16.610000610351562 31.246999740600586,41.63999938964844 31.246999740600586,41.63999938964844 C31.246999740600586,41.63999938964844 6.447000026702881,27.32200050354004 6.447000026702881,27.32200050354004 C6.447000026702881,27.32200050354004 6.51800012588501,2.2920000553131104 6.51800012588501,2.2920000553131104 C6.51800012588501,2.2920000553131104 31.31800079345703,16.610000610351562 31.31800079345703,16.610000610351562z"></path></g></g><g opacity="1" transform="matrix(1,0,0,1,0,0)"><g opacity="1" transform="matrix(1,0,0,1,0,0)"><path fill="rgb(255,255,255)" fill-opacity="1" d=" M55.95600128173828,2.2920000553131104 C55.95600128173828,2.2920000553131104 31.31800079345703,16.610000610351562 31.31800079345703,16.610000610351562 C31.31800079345703,16.610000610351562 6.51800012588501,2.2920000553131104 6.51800012588501,2.2920000553131104 C6.51800012588501,2.2920000553131104 31.1560001373291,-12.026000022888184 31.1560001373291,-12.026000022888184 C31.1560001373291,-12.026000022888184 55.95600128173828,2.2920000553131104 55.95600128173828,2.2920000553131104z"></path></g></g></g></g><g opacity="1" transform="matrix(0,0,0,0,-32.5,40.5)"><g opacity="1" transform="matrix(1,0,0,1,0,0)"><g opacity="1" transform="matrix(1,0,0,1,0,0)"><g opacity="1" transform="matrix(1,0,0,1,0,0)"><path fill="rgb(203,218,244)" fill-opacity="1" d=" M-6.447000026702881,1.5720000267028809 C-6.447000026702881,1.5720000267028809 -6.51800012588501,26.601999282836914 -6.51800012588501,26.601999282836914 C-6.51800012588501,26.601999282836914 -31.1560001373291,40.91999816894531 -31.1560001373291,40.91999816894531 C-31.1560001373291,40.91999816894531 -31.084999084472656,15.890000343322754 -31.084999084472656,15.890000343322754 C-31.084999084472656,15.890000343322754 -6.447000026702881,1.5720000267028809 -6.447000026702881,1.5720000267028809z"></path></g></g><g opacity="1" transform="matrix(1,0,0,1,0,0)"><g opacity="1" transform="matrix(1,0,0,1,0,0)"><path fill="rgb(218,230,250)" fill-opacity="1" d=" M-31.084999084472656,15.890000343322754 C-31.084999084472656,15.890000343322754 -31.1560001373291,40.91999816894531 -31.1560001373291,40.91999816894531 C-31.1560001373291,40.91999816894531 -55.95600128173828,26.601999282836914 -55.95600128173828,26.601999282836914 C-55.95600128173828,26.601999282836914 -55.8849983215332,1.5720000267028809 -55.8849983215332,1.5720000267028809 C-55.8849983215332,1.5720000267028809 -31.084999084472656,15.890000343322754 -31.084999084472656,15.890000343322754z"></path></g></g><g opacity="1" transform="matrix(1,0,0,1,0,0)"><g opacity="1" transform="matrix(1,0,0,1,0,0)"><path fill="rgb(255,255,255)" fill-opacity="1" d=" M-6.447000026702881,1.5720000267028809 C-6.447000026702881,1.5720000267028809 -31.084999084472656,15.890000343322754 -31.084999084472656,15.890000343322754 C-31.084999084472656,15.890000343322754 -55.8849983215332,1.5720000267028809 -55.8849983215332,1.5720000267028809 C-55.8849983215332,1.5720000267028809 -31.246999740600586,-12.746000289916992 -31.246999740600586,-12.746000289916992 C-31.246999740600586,-12.746000289916992 -6.447000026702881,1.5720000267028809 -6.447000026702881,1.5720000267028809z"></path></g></g></g></g><g opacity="1" transform="matrix(0,0,0,0,-0.375,58.375)"><g opacity="1" transform="matrix(1,0,0,1,0,0)"><g opacity="1" transform="matrix(1,0,0,1,0,0)"><g opacity="1" transform="matrix(1,0,0,1,0,0)"><path fill="rgb(226,37,37)" fill-opacity="1" d=" M25.47800064086914,20.003999710083008 C25.47800064086914,20.003999710083008 25.406999588012695,45.034000396728516 25.406999588012695,45.034000396728516 C25.406999588012695,45.034000396728516 0.7680000066757202,59.35200119018555 0.7680000066757202,59.35200119018555 C0.7680000066757202,59.35200119018555 0.8389999866485596,34.321998596191406 0.8389999866485596,34.321998596191406 C0.8389999866485596,34.321998596191406 25.47800064086914,20.003999710083008 25.47800064086914,20.003999710083008z"></path></g></g><g opacity="1" transform="matrix(1,0,0,1,0,0)"><g opacity="1" transform="matrix(1,0,0,1,0,0)"><path fill="rgb(240,66,66)" fill-opacity="1" d=" M0.8389999866485596,34.321998596191406 C0.8389999866485596,34.321998596191406 0.7680000066757202,59.35200119018555 0.7680000066757202,59.35200119018555 C0.7680000066757202,59.35200119018555 -24.0310001373291,45.034000396728516 -24.0310001373291,45.034000396728516 C-24.0310001373291,45.034000396728516 -23.959999084472656,20.003999710083008 -23.959999084472656,20.003999710083008 C-23.959999084472656,20.003999710083008 0.8389999866485596,34.321998596191406 0.8389999866485596,34.321998596191406z"></path></g></g><g opacity="1" transform="matrix(1,0,0,1,0,0)"><g opacity="1" transform="matrix(1,0,0,1,0,0)"><path fill="rgb(255,97,97)" fill-opacity="1" d=" M25.47800064086914,20.003999710083008 C25.47800064086914,20.003999710083008 0.8389999866485596,34.321998596191406 0.8389999866485596,34.321998596191406 C0.8389999866485596,34.321998596191406 -23.959999084472656,20.003999710083008 -23.959999084472656,20.003999710083008 C-23.959999084472656,20.003999710083008 0.6779999732971191,5.685999870300293 0.6779999732971191,5.685999870300293 C0.6779999732971191,5.685999870300293 25.47800064086914,20.003999710083008 25.47800064086914,20.003999710083008z"></path></g></g></g></g></g><g transform="matrix(1.7143000364303589,0,0,1.7143000364303589,300,300)" opacity="1" style="display: block;"><g opacity="1" transform="matrix(0,0,0,0,-0.5,-8)"><g opacity="1" transform="matrix(1,0,0,1,0,0)"><g opacity="1" transform="matrix(1,0,0,1,0,0)"><g opacity="1" transform="matrix(1,0,0,1,0,0)"><path fill="rgb(203,218,244)" fill-opacity="1" d=" M24.0310001373291,-46.92900085449219 C24.0310001373291,-46.92900085449219 23.959999084472656,-21.89900016784668 23.959999084472656,-21.89900016784668 C23.959999084472656,-21.89900016784668 -0.6779999732971191,-7.580999851226807 -0.6779999732971191,-7.580999851226807 C-0.6779999732971191,-7.580999851226807 -0.6069999933242798,-32.611000061035156 -0.6069999933242798,-32.611000061035156 C-0.6069999933242798,-32.611000061035156 24.0310001373291,-46.92900085449219 24.0310001373291,-46.92900085449219z"></path></g></g><g opacity="1" transform="matrix(1,0,0,1,0,0)"><g opacity="1" transform="matrix(1,0,0,1,0,0)"><path fill="rgb(218,230,250)" fill-opacity="1" d=" M-0.6069999933242798,-32.611000061035156 C-0.6069999933242798,-32.611000061035156 -0.6779999732971191,-7.580999851226807 -0.6779999732971191,-7.580999851226807 C-0.6779999732971191,-7.580999851226807 -25.47800064086914,-21.89900016784668 -25.47800064086914,-21.89900016784668 C-25.47800064086914,-21.89900016784668 -25.406999588012695,-46.92900085449219 -25.406999588012695,-46.92900085449219 C-25.406999588012695,-46.92900085449219 -0.6069999933242798,-32.611000061035156 -0.6069999933242798,-32.611000061035156z"></path></g></g><g opacity="1" transform="matrix(1,0,0,1,0,0)"><g opacity="1" transform="matrix(1,0,0,1,0,0)"><path fill="rgb(255,255,255)" fill-opacity="1" d=" M24.0310001373291,-46.92900085449219 C24.0310001373291,-46.92900085449219 -0.6069999933242798,-32.611000061035156 -0.6069999933242798,-32.611000061035156 C-0.6069999933242798,-32.611000061035156 -25.406999588012695,-46.92900085449219 -25.406999588012695,-46.92900085449219 C-25.406999588012695,-46.92900085449219 -0.7680000066757202,-61.24700164794922 -0.7680000066757202,-61.24700164794922 C-0.7680000066757202,-61.24700164794922 24.0310001373291,-46.92900085449219 24.0310001373291,-46.92900085449219z"></path></g></g></g></g><g opacity="1" transform="matrix(0,0,0,0,32,10)"><g opacity="1" transform="matrix(1,0,0,1,0,0)"><g opacity="1" transform="matrix(1,0,0,1,0,0)"><g opacity="1" transform="matrix(1,0,0,1,0,0)"><path fill="rgb(27,226,72)" fill-opacity="1" d=" M55.95600128173828,-28.496999740600586 C55.95600128173828,-28.496999740600586 55.8849983215332,-3.4670000076293945 55.8849983215332,-3.4670000076293945 C55.8849983215332,-3.4670000076293945 31.246999740600586,10.85099983215332 31.246999740600586,10.85099983215332 C31.246999740600586,10.85099983215332 31.31800079345703,-14.178999900817871 31.31800079345703,-14.178999900817871 C31.31800079345703,-14.178999900817871 55.95600128173828,-28.496999740600586 55.95600128173828,-28.496999740600586z"></path></g></g><g opacity="1" transform="matrix(1,0,0,1,0,0)"><g opacity="1" transform="matrix(1,0,0,1,0,0)"><path fill="rgb(84,255,97)" fill-opacity="1" d=" M31.31800079345703,-14.178999900817871 C31.31800079345703,-14.178999900817871 31.246999740600586,10.85099983215332 31.246999740600586,10.85099983215332 C31.246999740600586,10.85099983215332 6.447000026702881,-3.4670000076293945 6.447000026702881,-3.4670000076293945 C6.447000026702881,-3.4670000076293945 6.51800012588501,-28.496999740600586 6.51800012588501,-28.496999740600586 C6.51800012588501,-28.496999740600586 31.31800079345703,-14.178999900817871 31.31800079345703,-14.178999900817871z"></path></g></g><g opacity="1" transform="matrix(1,0,0,1,0,0)"><g opacity="1" transform="matrix(1,0,0,1,0,0)"><path fill="rgb(156,255,157)" fill-opacity="1" d=" M55.95600128173828,-28.496999740600586 C55.95600128173828,-28.496999740600586 31.31800079345703,-14.178999900817871 31.31800079345703,-14.178999900817871 C31.31800079345703,-14.178999900817871 6.51800012588501,-28.496999740600586 6.51800012588501,-28.496999740600586 C6.51800012588501,-28.496999740600586 31.1560001373291,-42.814998626708984 31.1560001373291,-42.814998626708984 C31.1560001373291,-42.814998626708984 55.95600128173828,-28.496999740600586 55.95600128173828,-28.496999740600586z"></path></g></g></g></g><g opacity="1" transform="matrix(0,0,0,0,-31.5,11)"><g opacity="1" transform="matrix(1,0,0,1,0,0)"><g opacity="1" transform="matrix(1,0,0,1,0,0)"><g opacity="1" transform="matrix(1,0,0,1,0,0)"><path fill="rgb(203,218,244)" fill-opacity="1" d=" M-6.447000026702881,-29.216999053955078 C-6.447000026702881,-29.216999053955078 -6.51800012588501,-4.186999797821045 -6.51800012588501,-4.186999797821045 C-6.51800012588501,-4.186999797821045 -31.1560001373291,10.130999565124512 -31.1560001373291,10.130999565124512 C-31.1560001373291,10.130999565124512 -31.084999084472656,-14.89900016784668 -31.084999084472656,-14.89900016784668 C-31.084999084472656,-14.89900016784668 -6.447000026702881,-29.216999053955078 -6.447000026702881,-29.216999053955078z"></path></g></g><g opacity="1" transform="matrix(1,0,0,1,0,0)"><g opacity="1" transform="matrix(1,0,0,1,0,0)"><path fill="rgb(218,230,250)" fill-opacity="1" d=" M-31.084999084472656,-14.89900016784668 C-31.084999084472656,-14.89900016784668 -31.1560001373291,10.130999565124512 -31.1560001373291,10.130999565124512 C-31.1560001373291,10.130999565124512 -55.95600128173828,-4.186999797821045 -55.95600128173828,-4.186999797821045 C-55.95600128173828,-4.186999797821045 -55.8849983215332,-29.216999053955078 -55.8849983215332,-29.216999053955078 C-55.8849983215332,-29.216999053955078 -31.084999084472656,-14.89900016784668 -31.084999084472656,-14.89900016784668z"></path></g></g><g opacity="1" transform="matrix(1,0,0,1,0,0)"><g opacity="1" transform="matrix(1,0,0,1,0,0)"><path fill="rgb(255,255,255)" fill-opacity="1" d=" M-6.447000026702881,-29.216999053955078 C-6.447000026702881,-29.216999053955078 -31.084999084472656,-14.89900016784668 -31.084999084472656,-14.89900016784668 C-31.084999084472656,-14.89900016784668 -55.8849983215332,-29.216999053955078 -55.8849983215332,-29.216999053955078 C-55.8849983215332,-29.216999053955078 -31.246999740600586,-43.53499984741211 -31.246999740600586,-43.53499984741211 C-31.246999740600586,-43.53499984741211 -6.447000026702881,-29.216999053955078 -6.447000026702881,-29.216999053955078z"></path></g></g></g></g><g opacity="1" transform="matrix(0,0,0,0,0.5,29.5)"><g opacity="1" transform="matrix(1,0,0,1,0,0)"><g opacity="1" transform="matrix(1,0,0,1,0,0)"><g opacity="1" transform="matrix(1,0,0,1,0,0)"><path fill="rgb(203,218,244)" fill-opacity="1" d=" M25.47800064086914,-10.78499984741211 C25.47800064086914,-10.78499984741211 25.406999588012695,14.244999885559082 25.406999588012695,14.244999885559082 C25.406999588012695,14.244999885559082 0.7680000066757202,28.562999725341797 0.7680000066757202,28.562999725341797 C0.7680000066757202,28.562999725341797 0.8389999866485596,3.5329999923706055 0.8389999866485596,3.5329999923706055 C0.8389999866485596,3.5329999923706055 25.47800064086914,-10.78499984741211 25.47800064086914,-10.78499984741211z"></path></g></g><g opacity="1" transform="matrix(1,0,0,1,0,0)"><g opacity="1" transform="matrix(1,0,0,1,0,0)"><path fill="rgb(218,230,250)" fill-opacity="1" d=" M0.8389999866485596,3.5329999923706055 C0.8389999866485596,3.5329999923706055 0.7680000066757202,28.562999725341797 0.7680000066757202,28.562999725341797 C0.7680000066757202,28.562999725341797 -24.0310001373291,14.244999885559082 -24.0310001373291,14.244999885559082 C-24.0310001373291,14.244999885559082 -23.959999084472656,-10.78499984741211 -23.959999084472656,-10.78499984741211 C-23.959999084472656,-10.78499984741211 0.8389999866485596,3.5329999923706055 0.8389999866485596,3.5329999923706055z"></path></g></g><g opacity="1" transform="matrix(1,0,0,1,0,0)"><g opacity="1" transform="matrix(1,0,0,1,0,0)"><path fill="rgb(255,255,255)" fill-opacity="1" d=" M25.47800064086914,-10.78499984741211 C25.47800064086914,-10.78499984741211 0.8389999866485596,3.5329999923706055 0.8389999866485596,3.5329999923706055 C0.8389999866485596,3.5329999923706055 -23.959999084472656,-10.78499984741211 -23.959999084472656,-10.78499984741211 C-23.959999084472656,-10.78499984741211 0.6779999732971191,-25.10300064086914 0.6779999732971191,-25.10300064086914 C0.6779999732971191,-25.10300064086914 25.47800064086914,-10.78499984741211 25.47800064086914,-10.78499984741211z"></path></g></g></g></g></g><g transform="matrix(1.7143000364303589,0,0,1.7143000364303589,300,299.9966735839844)" opacity="1" style="display: block;"><g opacity="1" transform="matrix(0,0,0,0,0,-38)"><g opacity="1" transform="matrix(1,0,0,1,0,0)"><g opacity="1" transform="matrix(1,0,0,1,0,0)"><g opacity="1" transform="matrix(1,0,0,1,0,0)"><path fill="rgb(203,218,244)" fill-opacity="1" d=" M24.0310001373291,-77.71800231933594 C24.0310001373291,-77.71800231933594 23.959999084472656,-52.6879997253418 23.959999084472656,-52.6879997253418 C23.959999084472656,-52.6879997253418 -0.6779999732971191,-38.369998931884766 -0.6779999732971191,-38.369998931884766 C-0.6779999732971191,-38.369998931884766 -0.6069999933242798,-63.400001525878906 -0.6069999933242798,-63.400001525878906 C-0.6069999933242798,-63.400001525878906 24.0310001373291,-77.71800231933594 24.0310001373291,-77.71800231933594z"></path></g></g><g opacity="1" transform="matrix(1,0,0,1,0,0)"><g opacity="1" transform="matrix(1,0,0,1,0,0)"><path fill="rgb(218,230,250)" fill-opacity="1" d=" M-0.6069999933242798,-63.400001525878906 C-0.6069999933242798,-63.400001525878906 -0.6779999732971191,-38.369998931884766 -0.6779999732971191,-38.369998931884766 C-0.6779999732971191,-38.369998931884766 -25.47800064086914,-52.6879997253418 -25.47800064086914,-52.6879997253418 C-25.47800064086914,-52.6879997253418 -25.406999588012695,-77.71800231933594 -25.406999588012695,-77.71800231933594 C-25.406999588012695,-77.71800231933594 -0.6069999933242798,-63.400001525878906 -0.6069999933242798,-63.400001525878906z"></path></g></g><g opacity="1" transform="matrix(1,0,0,1,0,0)"><g opacity="1" transform="matrix(1,0,0,1,0,0)"><path fill="rgb(235,241,255)" fill-opacity="1" d=" M24.0310001373291,-77.71800231933594 C24.0310001373291,-77.71800231933594 -0.6069999933242798,-63.400001525878906 -0.6069999933242798,-63.400001525878906 C-0.6069999933242798,-63.400001525878906 -25.406999588012695,-77.71800231933594 -25.406999588012695,-77.71800231933594 C-25.406999588012695,-77.71800231933594 -0.7680000066757202,-92.03600311279297 -0.7680000066757202,-92.03600311279297 C-0.7680000066757202,-92.03600311279297 24.0310001373291,-77.71800231933594 24.0310001373291,-77.71800231933594z"></path></g></g></g></g><g opacity="1" transform="matrix(0,0,0,0,31.5,-21)"><g opacity="1" transform="matrix(1,0,0,1,0,0)"><g opacity="1" transform="matrix(1,0,0,1,0,0)"><g opacity="1" transform="matrix(1,0,0,1,0,0)"><path fill="rgb(203,218,244)" fill-opacity="1" d=" M55.95600128173828,-59.2859992980957 C55.95600128173828,-59.2859992980957 55.8849983215332,-34.25600051879883 55.8849983215332,-34.25600051879883 C55.8849983215332,-34.25600051879883 31.246999740600586,-19.937999725341797 31.246999740600586,-19.937999725341797 C31.246999740600586,-19.937999725341797 31.31800079345703,-44.96799850463867 31.31800079345703,-44.96799850463867 C31.31800079345703,-44.96799850463867 55.95600128173828,-59.2859992980957 55.95600128173828,-59.2859992980957z"></path></g></g><g opacity="1" transform="matrix(1,0,0,1,0,0)"><g opacity="1" transform="matrix(1,0,0,1,0,0)"><path fill="rgb(218,230,250)" fill-opacity="1" d=" M31.31800079345703,-44.96799850463867 C31.31800079345703,-44.96799850463867 31.246999740600586,-19.937999725341797 31.246999740600586,-19.937999725341797 C31.246999740600586,-19.937999725341797 6.447000026702881,-34.25600051879883 6.447000026702881,-34.25600051879883 C6.447000026702881,-34.25600051879883 6.51800012588501,-59.2859992980957 6.51800012588501,-59.2859992980957 C6.51800012588501,-59.2859992980957 31.31800079345703,-44.96799850463867 31.31800079345703,-44.96799850463867z"></path></g></g><g opacity="1" transform="matrix(1,0,0,1,0,0)"><g opacity="1" transform="matrix(1,0,0,1,0,0)"><path fill="rgb(235,241,255)" fill-opacity="1" d=" M55.95600128173828,-59.2859992980957 C55.95600128173828,-59.2859992980957 31.31800079345703,-44.96799850463867 31.31800079345703,-44.96799850463867 C31.31800079345703,-44.96799850463867 6.51800012588501,-59.2859992980957 6.51800012588501,-59.2859992980957 C6.51800012588501,-59.2859992980957 31.1560001373291,-73.60399627685547 31.1560001373291,-73.60399627685547 C31.1560001373291,-73.60399627685547 55.95600128173828,-59.2859992980957 55.95600128173828,-59.2859992980957z"></path></g></g></g></g><g opacity="1" transform="matrix(0,0,0,0,-31.5,-22)"><g opacity="1" transform="matrix(1,0,0,1,0,0)"><g opacity="1" transform="matrix(1,0,0,1,0,0)"><g opacity="1" transform="matrix(1,0,0,1,0,0)"><path fill="rgb(58,98,222)" fill-opacity="1" d=" M-6.447000026702881,-60.00600051879883 C-6.447000026702881,-60.00600051879883 -6.51800012588501,-34.97600173950195 -6.51800012588501,-34.97600173950195 C-6.51800012588501,-34.97600173950195 -31.1560001373291,-20.658000946044922 -31.1560001373291,-20.658000946044922 C-31.1560001373291,-20.658000946044922 -31.084999084472656,-45.6879997253418 -31.084999084472656,-45.6879997253418 C-31.084999084472656,-45.6879997253418 -6.447000026702881,-60.00600051879883 -6.447000026702881,-60.00600051879883z"></path></g></g><g opacity="1" transform="matrix(1,0,0,1,0,0)"><g opacity="1" transform="matrix(1,0,0,1,0,0)"><path fill="rgb(69,121,239)" fill-opacity="1" d=" M-31.084999084472656,-45.6879997253418 C-31.084999084472656,-45.6879997253418 -31.1560001373291,-20.658000946044922 -31.1560001373291,-20.658000946044922 C-31.1560001373291,-20.658000946044922 -55.95600128173828,-34.97600173950195 -55.95600128173828,-34.97600173950195 C-55.95600128173828,-34.97600173950195 -55.8849983215332,-60.00600051879883 -55.8849983215332,-60.00600051879883 C-55.8849983215332,-60.00600051879883 -31.084999084472656,-45.6879997253418 -31.084999084472656,-45.6879997253418z"></path></g></g><g opacity="1" transform="matrix(1,0,0,1,0,0)"><g opacity="1" transform="matrix(1,0,0,1,0,0)"><path fill="rgb(78,144,255)" fill-opacity="1" d=" M-6.447000026702881,-60.00600051879883 C-6.447000026702881,-60.00600051879883 -31.084999084472656,-45.6879997253418 -31.084999084472656,-45.6879997253418 C-31.084999084472656,-45.6879997253418 -55.8849983215332,-60.00600051879883 -55.8849983215332,-60.00600051879883 C-55.8849983215332,-60.00600051879883 -31.246999740600586,-74.3239974975586 -31.246999740600586,-74.3239974975586 C-31.246999740600586,-74.3239974975586 -6.447000026702881,-60.00600051879883 -6.447000026702881,-60.00600051879883z"></path></g></g></g></g><g opacity="1" transform="matrix(0,0,0,0,0,0)"><g opacity="1" transform="matrix(1,0,0,1,0,0)"><g opacity="1" transform="matrix(1,0,0,1,0,0)"><g opacity="1" transform="matrix(1,0,0,1,0,0)"><path fill="rgb(203,218,244)" fill-opacity="1" d=" M25.47800064086914,-41.57400131225586 C25.47800064086914,-41.57400131225586 25.406999588012695,-16.54400062561035 25.406999588012695,-16.54400062561035 C25.406999588012695,-16.54400062561035 0.7680000066757202,-2.2260000705718994 0.7680000066757202,-2.2260000705718994 C0.7680000066757202,-2.2260000705718994 0.8389999866485596,-27.256000518798828 0.8389999866485596,-27.256000518798828 C0.8389999866485596,-27.256000518798828 25.47800064086914,-41.57400131225586 25.47800064086914,-41.57400131225586z"></path></g></g><g opacity="1" transform="matrix(1,0,0,1,0,0)"><g opacity="1" transform="matrix(1,0,0,1,0,0)"><path fill="rgb(218,230,250)" fill-opacity="1" d=" M0.8389999866485596,-27.256000518798828 C0.8389999866485596,-27.256000518798828 0.7680000066757202,-2.2260000705718994 0.7680000066757202,-2.2260000705718994 C0.7680000066757202,-2.2260000705718994 -24.0310001373291,-16.54400062561035 -24.0310001373291,-16.54400062561035 C-24.0310001373291,-16.54400062561035 -23.959999084472656,-41.57400131225586 -23.959999084472656,-41.57400131225586 C-23.959999084472656,-41.57400131225586 0.8389999866485596,-27.256000518798828 0.8389999866485596,-27.256000518798828z"></path></g></g><g opacity="1" transform="matrix(1,0,0,1,0,0)"><g opacity="1" transform="matrix(1,0,0,1,0,0)"><path fill="rgb(235,241,255)" fill-opacity="1" d=" M25.47800064086914,-41.57400131225586 C25.47800064086914,-41.57400131225586 0.8389999866485596,-27.256000518798828 0.8389999866485596,-27.256000518798828 C0.8389999866485596,-27.256000518798828 -23.959999084472656,-41.57400131225586 -23.959999084472656,-41.57400131225586 C-23.959999084472656,-41.57400131225586 0.6779999732971191,-55.891998291015625 0.6779999732971191,-55.891998291015625 C0.6779999732971191,-55.891998291015625 25.47800064086914,-41.57400131225586 25.47800064086914,-41.57400131225586z"></path></g></g></g></g></g><g transform="matrix(1.7143000364303589,0,0,1.7143000364303589,300,300)" opacity="0.4" style="display: block;"><g opacity="1" transform="matrix(1,0,0,1,0,0)"><g opacity="1" transform="matrix(1,0,0,1,0,0)"><g opacity="1" transform="matrix(1,0,0,1,0,0)"><g opacity="1" transform="matrix(1,0,0,1,0,0)"><g opacity="1" transform="matrix(1,0,0,1,0,0)"><g opacity="1" transform="matrix(1,0,0,1,0,0)"><path fill="rgb(255,130,41)" fill-opacity="1" d=" M0.33899998664855957,-24 C0.33899998664855957,-24 0.15600000321865082,71.5469970703125 0.15600000321865082,71.5469970703125 C0.15600000321865082,71.5469970703125 77.5260009765625,26.572999954223633 77.5260009765625,26.572999954223633 C77.5260009765625,26.572999954223633 77.70899963378906,-68.9469985961914 77.70899963378906,-68.9469985961914 C77.70899963378906,-68.9469985961914 0.33899998664855957,-24 0.33899998664855957,-24z M69.71399688720703,22.0939998626709 C69.71399688720703,22.0939998626709 7.994999885559082,57.95399856567383 7.994999885559082,57.95399856567383 C7.994999885559082,57.95399856567383 8.151000022888184,-19.493999481201172 8.151000022888184,-19.493999481201172 C8.151000022888184,-19.493999481201172 69.87000274658203,-55.354000091552734 69.87000274658203,-55.354000091552734 C69.87000274658203,-55.354000091552734 69.71399688720703,22.0939998626709 69.71399688720703,22.0939998626709z"></path></g></g></g><g opacity="1" transform="matrix(1,0,0,1,0,0)"><g opacity="1" transform="matrix(1,0,0,1,0,0)"><g opacity="1" transform="matrix(1,0,0,1,0,0)"><path fill="rgb(255,130,41)" fill-opacity="1" d=" M-77.5260009765625,-68.9469985961914 C-77.5260009765625,-68.9469985961914 -77.70800018310547,26.572999954223633 -77.70800018310547,26.572999954223633 C-77.70800018310547,26.572999954223633 0.15600000321865082,71.5469970703125 0.15600000321865082,71.5469970703125 C0.15600000321865082,71.5469970703125 0.33899998664855957,-24 0.33899998664855957,-24 C0.33899998664855957,-24 -77.5260009765625,-68.9469985961914 -77.5260009765625,-68.9469985961914z M-7.630000114440918,58.03200149536133 C-7.630000114440918,58.03200149536133 -69.8949966430664,22.06800079345703 -69.8949966430664,22.06800079345703 C-69.8949966430664,22.06800079345703 -69.73899841308594,-55.43199920654297 -69.73899841308594,-55.43199920654297 C-69.73899841308594,-55.43199920654297 -7.473999977111816,-19.493999481201172 -7.473999977111816,-19.493999481201172 C-7.473999977111816,-19.493999481201172 -7.630000114440918,58.03200149536133 -7.630000114440918,58.03200149536133z"></path></g></g></g><g opacity="1" transform="matrix(1,0,0,1,0,0)"><g opacity="1" transform="matrix(1,0,0,1,0,0)"><g opacity="1" transform="matrix(1,0,0,1,0,0)"><path fill="rgb(255,130,41)" fill-opacity="1" d=" M-0.18199999630451202,-113.9209976196289 C-0.18199999630451202,-113.9209976196289 -77.5260009765625,-68.9469985961914 -77.5260009765625,-68.9469985961914 C-77.5260009765625,-68.9469985961914 0.33899998664855957,-24 0.33899998664855957,-24 C0.33899998664855957,-24 77.70899963378906,-68.9469985961914 77.70899963378906,-68.9469985961914 C77.70899963378906,-68.9469985961914 -0.18199999630451202,-113.9209976196289 -0.18199999630451202,-113.9209976196289z M-61.952999114990234,-68.9739990234375 C-61.952999114990234,-68.9739990234375 -0.15600000321865082,-104.88500213623047 -0.15600000321865082,-104.88500213623047 C-0.15600000321865082,-104.88500213623047 62.11000061035156,-68.9219970703125 62.11000061035156,-68.9219970703125 C62.11000061035156,-68.9219970703125 0.33899998664855957,-33.0359992980957 0.33899998664855957,-33.0359992980957 C0.33899998664855957,-33.0359992980957 -61.952999114990234,-68.9739990234375 -61.952999114990234,-68.9739990234375z"></path></g></g></g></g></g></g><g opacity="1" transform="matrix(1,0,0,1,0,0)"><g opacity="1" transform="matrix(1,0,0,1,0,0)"><path fill="rgb(255,255,255)" fill-opacity="1" d=" M8.149999618530273,-19.5 C8.149999618530273,-19.5 69.86199951171875,-55.36399841308594 69.86199951171875,-55.36399841308594 C69.86199951171875,-55.36399841308594 69.71900177001953,22.086000442504883 69.71900177001953,22.086000442504883 C69.71900177001953,22.086000442504883 8.005000114440918,57.95000076293945 8.005000114440918,57.95000076293945 C8.005000114440918,57.95000076293945 8.149999618530273,-19.5 8.149999618530273,-19.5z"></path></g></g><g opacity="1" transform="matrix(1,0,0,1,0,0)"><g opacity="1" transform="matrix(1,0,0,1,0,0)"><path fill="rgb(255,255,255)" fill-opacity="1" d=" M-69.88300323486328,22.075000762939453 C-69.88300323486328,22.075000762939453 -69.74099731445312,-55.44300079345703 -69.74099731445312,-55.44300079345703 C-69.74099731445312,-55.44300079345703 -7.474999904632568,-19.4950008392334 -7.474999904632568,-19.4950008392334 C-7.474999904632568,-19.4950008392334 -7.619999885559082,58.02399826049805 -7.619999885559082,58.02399826049805 C-7.619999885559082,58.02399826049805 -69.88300323486328,22.075000762939453 -69.88300323486328,22.075000762939453z"></path></g></g><g opacity="1" transform="matrix(1,0,0,1,0,0)"><g opacity="1" transform="matrix(1,0,0,1,0,0)"><path fill="rgb(255,255,255)" fill-opacity="1" d=" M-61.941001892089844,-68.98100280761719 C-61.941001892089844,-68.98100280761719 -0.15800000727176666,-104.88700103759766 -0.15800000727176666,-104.88700103759766 C-0.15800000727176666,-104.88700103759766 62.112998962402344,-68.93299865722656 62.112998962402344,-68.93299865722656 C62.112998962402344,-68.93299865722656 0.3330000042915344,-33.02799987792969 0.3330000042915344,-33.02799987792969 C0.3330000042915344,-33.02799987792969 -61.941001892089844,-68.98100280761719 -61.941001892089844,-68.98100280761719z"></path></g></g></g><g transform="matrix(1.7143000364303589,0,0,1.7143000364303589,300,300)" opacity="1" style="display: block;"><g opacity="1" transform="matrix(1,0,0,1,0,0)"><path fill="rgb(255,144,65)" fill-opacity="1" d=" M79.00299835205078,-68.95700073242188 C79.00299835205078,-69.0479965209961 78.98600006103516,-69.13500213623047 78.96800231933594,-69.22200012207031 C78.96299743652344,-69.24500274658203 78.96399688720703,-69.2699966430664 78.95800018310547,-69.29299926757812 C78.87000274658203,-69.62100219726562 78.65499877929688,-69.90799713134766 78.35299682617188,-70.08200073242188 C78.35299682617188,-70.08200073242188 0.4790000021457672,-115.04199981689453 0.4790000021457672,-115.04199981689453 C0.07599999755620956,-115.2760009765625 -0.4230000078678131,-115.27400207519531 -0.8259999752044678,-115.04100036621094 C-0.8259999752044678,-115.04100036621094 -78.18299865722656,-70.08499908447266 -78.18299865722656,-70.08499908447266 C-78.24199676513672,-70.05000305175781 -78.29100036621094,-70.00499725341797 -78.34300231933594,-69.96199798583984 C-78.37799835205078,-69.93299865722656 -78.41899871826172,-69.91000366210938 -78.45099639892578,-69.87799835205078 C-78.49500274658203,-69.83300018310547 -78.52799987792969,-69.77899932861328 -78.56500244140625,-69.72899627685547 C-78.59500122070312,-69.68900299072266 -78.63099670410156,-69.65299987792969 -78.65599822998047,-69.61000061035156 C-78.68399810791016,-69.56199645996094 -78.697998046875,-69.50900268554688 -78.71900177001953,-69.45800018310547 C-78.74099731445312,-69.40499877929688 -78.7699966430664,-69.3550033569336 -78.78500366210938,-69.29900360107422 C-78.79900360107422,-69.24700164794922 -78.79900360107422,-69.19000244140625 -78.80699920654297,-69.13600158691406 C-78.81500244140625,-69.0780029296875 -78.83100128173828,-69.02200317382812 -78.83100128173828,-68.96199798583984 C-78.83100128173828,-68.96199798583984 -79.00599670410156,26.57900047302246 -79.00599670410156,26.57900047302246 C-79.00599670410156,27.045000076293945 -78.75900268554688,27.47599983215332 -78.3550033569336,27.708999633789062 C-78.3550033569336,27.708999633789062 -0.4819999933242798,72.66899871826172 -0.4819999933242798,72.66899871826172 C-0.2809999883174896,72.78500366210938 -0.05700000002980232,72.84300231933594 0.1679999977350235,72.84300231933594 C0.2809999883174896,72.84300231933594 0.3930000066757202,72.8280029296875 0.503000020980835,72.79900360107422 C0.5839999914169312,72.77799987792969 0.6600000262260437,72.73999786376953 0.7360000014305115,72.7030029296875 C0.7630000114440918,72.69000244140625 0.7919999957084656,72.68399810791016 0.8180000185966492,72.66899871826172 C0.8180000185966492,72.66899871826172 0.8190000057220459,72.66899871826172 0.8190000057220459,72.66899871826172 C0.8199999928474426,72.66799926757812 0.8220000267028809,72.66799926757812 0.8230000138282776,72.66699981689453 C0.8230000138282776,72.66699981689453 78.18000030517578,27.711999893188477 78.18000030517578,27.711999893188477 C78.58000183105469,27.479999542236328 78.82599639892578,27.052000045776367 78.8270034790039,26.58799934387207 C78.8270034790039,26.58799934387207 79.00299835205078,-68.9520034790039 79.00299835205078,-68.9520034790039 C79.00299835205078,-68.9530029296875 79.00299835205078,-68.9530029296875 79.00299835205078,-68.9540023803711 C79.00299835205078,-68.95500183105469 79.00299835205078,-68.95600128173828 79.00299835205078,-68.95700073242188z M-0.16899999976158142,-112.41000366210938 C-0.16899999976158142,-112.41000366210938 75.10299682617188,-68.95099639892578 75.10299682617188,-68.95099639892578 C75.10299682617188,-68.95099639892578 0.34200000762939453,-25.5049991607666 0.34200000762939453,-25.5049991607666 C0.34200000762939453,-25.5049991607666 -74.93099975585938,-68.96299743652344 -74.93099975585938,-68.96299743652344 C-74.93099975585938,-68.96299743652344 -0.16899999976158142,-112.41000366210938 -0.16899999976158142,-112.41000366210938z M-76.2300033569336,-66.70700073242188 C-76.2300033569336,-66.70700073242188 -0.9589999914169312,-23.249000549316406 -0.9589999914169312,-23.249000549316406 C-0.9589999914169312,-23.249000549316406 -1.1299999952316284,69.28800201416016 -1.1299999952316284,69.28800201416016 C-1.1299999952316284,69.28800201416016 -76.4000015258789,25.829999923706055 -76.4000015258789,25.829999923706055 C-76.4000015258789,25.829999923706055 -76.2300033569336,-66.70700073242188 -76.2300033569336,-66.70700073242188z M1.475000023841858,69.2760009765625 C1.475000023841858,69.2760009765625 1.6449999809265137,-23.249000549316406 1.6449999809265137,-23.249000549316406 C1.6449999809265137,-23.249000549316406 76.3949966430664,-66.68900299072266 76.3949966430664,-66.68900299072266 C76.3949966430664,-66.68900299072266 76.2249984741211,25.836000442504883 76.2249984741211,25.836000442504883 C76.2249984741211,25.836000442504883 1.475000023841858,69.2760009765625 1.475000023841858,69.2760009765625z"></path></g></g><g transform="matrix(1.7782888412475586,0,0,1.7782888412475586,306.77301025390625,293.6042785644531)" opacity="1" style="display: block;"><g opacity="1" transform="matrix(1,0,0,1,0,0)"><g opacity="1" transform="matrix(1,0,0,1,0,0)"><path fill="rgb(77,204,242)" fill-opacity="1" d=" M-86.77999877929688,69.52100372314453 C-86.77999877929688,69.52100372314453 -86.83499908447266,88.84300231933594 -86.83499908447266,88.84300231933594 C-86.83499908447266,88.84300231933594 -105.8550033569336,99.89700317382812 -105.8550033569336,99.89700317382812 C-105.8550033569336,99.89700317382812 -105.80000305175781,80.5739974975586 -105.80000305175781,80.5739974975586 C-105.80000305175781,80.5739974975586 -86.77999877929688,69.52100372314453 -86.77999877929688,69.52100372314453z"></path></g></g><g opacity="1" transform="matrix(1,0,0,1,0,0)"><g opacity="1" transform="matrix(1,0,0,1,0,0)"><path fill="rgb(112,216,247)" fill-opacity="1" d=" M-105.80000305175781,80.5739974975586 C-105.80000305175781,80.5739974975586 -105.8550033569336,99.89700317382812 -105.8550033569336,99.89700317382812 C-105.8550033569336,99.89700317382812 -125,88.84400177001953 -125,88.84400177001953 C-125,88.84400177001953 -124.94499969482422,69.52100372314453 -124.94499969482422,69.52100372314453 C-124.94499969482422,69.52100372314453 -105.80000305175781,80.5739974975586 -105.80000305175781,80.5739974975586z"></path></g></g><g opacity="1" transform="matrix(1,0,0,1,0,0)"><g opacity="1" transform="matrix(1,0,0,1,0,0)"><path fill="rgb(148,226,254)" fill-opacity="1" d=" M-86.77999877929688,69.52100372314453 C-86.77999877929688,69.52100372314453 -105.80000305175781,80.5739974975586 -105.80000305175781,80.5739974975586 C-105.80000305175781,80.5739974975586 -124.94499969482422,69.52100372314453 -124.94499969482422,69.52100372314453 C-124.94499969482422,69.52100372314453 -105.92500305175781,58.46699905395508 -105.92500305175781,58.46699905395508 C-105.92500305175781,58.46699905395508 -86.77999877929688,69.52100372314453 -86.77999877929688,69.52100372314453z"></path></g></g></g><g transform="matrix(2.0104568004608154,0,0,2.0104568004608154,269.22760009765625,269.4805908203125)" opacity="1" style="display: block;"><g opacity="1" transform="matrix(1,0,0,1,0,0)"><g opacity="1" transform="matrix(1,0,0,1,0,0)"><path fill="rgb(163,110,241)" fill-opacity="1" d=" M84.3219985961914,71.9280014038086 C84.3219985961914,71.9280014038086 84.37799835205078,91.71600341796875 84.37799835205078,91.71600341796875 C84.37799835205078,91.71600341796875 103.85700225830078,103.03600311279297 103.85700225830078,103.03600311279297 C103.85700225830078,103.03600311279297 103.8010025024414,83.24700164794922 103.8010025024414,83.24700164794922 C103.8010025024414,83.24700164794922 84.3219985961914,71.9280014038086 84.3219985961914,71.9280014038086z"></path></g></g><g opacity="1" transform="matrix(1,0,0,1,0,0)"><g opacity="1" transform="matrix(1,0,0,1,0,0)"><path fill="rgb(144,86,228)" fill-opacity="1" d=" M103.8010025024414,83.24700164794922 C103.8010025024414,83.24700164794922 103.85700225830078,103.03600311279297 103.85700225830078,103.03600311279297 C103.85700225830078,103.03600311279297 123.46399688720703,91.71600341796875 123.46399688720703,91.71600341796875 C123.46399688720703,91.71600341796875 123.40799713134766,71.9280014038086 123.40799713134766,71.9280014038086 C123.40799713134766,71.9280014038086 103.8010025024414,83.24700164794922 103.8010025024414,83.24700164794922z"></path></g></g><g opacity="1" transform="matrix(1,0,0,1,0,0)"><g opacity="1" transform="matrix(1,0,0,1,0,0)"><path fill="rgb(182,133,255)" fill-opacity="1" d=" M84.3219985961914,71.9280014038086 C84.3219985961914,71.9280014038086 103.8010025024414,83.24700164794922 103.8010025024414,83.24700164794922 C103.8010025024414,83.24700164794922 123.40799713134766,71.9280014038086 123.40799713134766,71.9280014038086 C123.40799713134766,71.9280014038086 103.92900085449219,60.608001708984375 103.92900085449219,60.608001708984375 C103.92900085449219,60.608001708984375 84.3219985961914,71.9280014038086 84.3219985961914,71.9280014038086z"></path></g></g></g><g transform="matrix(1.7782888412475586,0,0,1.7782888412475586,293.22698974609375,301.1417541503906)" opacity="1" style="display: block;"><g opacity="1" transform="matrix(1,0,0,1,0,0)"><g opacity="1" transform="matrix(1,0,0,1,0,0)"><path fill="rgb(226,37,37)" fill-opacity="1" d=" M125,-48.17499923706055 C125,-48.17499923706055 124.94499969482422,-28.85300064086914 124.94499969482422,-28.85300064086914 C124.94499969482422,-28.85300064086914 105.92500305175781,-17.798999786376953 105.92500305175781,-17.798999786376953 C105.92500305175781,-17.798999786376953 105.9800033569336,-37.12200164794922 105.9800033569336,-37.12200164794922 C105.9800033569336,-37.12200164794922 125,-48.17499923706055 125,-48.17499923706055z"></path></g></g><g opacity="1" transform="matrix(1,0,0,1,0,0)"><g opacity="1" transform="matrix(1,0,0,1,0,0)"><path fill="rgb(240,66,66)" fill-opacity="1" d=" M105.9800033569336,-37.12200164794922 C105.9800033569336,-37.12200164794922 105.92500305175781,-17.798999786376953 105.92500305175781,-17.798999786376953 C105.92500305175781,-17.798999786376953 86.77999877929688,-28.85300064086914 86.77999877929688,-28.85300064086914 C86.77999877929688,-28.85300064086914 86.83499908447266,-48.17499923706055 86.83499908447266,-48.17499923706055 C86.83499908447266,-48.17499923706055 105.9800033569336,-37.12200164794922 105.9800033569336,-37.12200164794922z"></path></g></g><g opacity="1" transform="matrix(1,0,0,1,0,0)"><g opacity="1" transform="matrix(1,0,0,1,0,0)"><path fill="rgb(255,97,97)" fill-opacity="1" d=" M125,-48.17499923706055 C125,-48.17499923706055 105.9800033569336,-37.12200164794922 105.9800033569336,-37.12200164794922 C105.9800033569336,-37.12200164794922 86.83499908447266,-48.17499923706055 86.83499908447266,-48.17499923706055 C86.83499908447266,-48.17499923706055 105.8550033569336,-59.229000091552734 105.8550033569336,-59.229000091552734 C105.8550033569336,-59.229000091552734 125,-48.17499923706055 125,-48.17499923706055z"></path></g></g></g><g mask="url(#__lottie_element_39_1)" style="display: block;"><g transform="matrix(1.7143000364303589,0,0,1.7143000364303589,299.993408203125,299.9964904785156)" opacity="0.3"><g opacity="1" transform="matrix(1,0,0,1,0,0)"><path fill="rgb(255,255,255)" fill-opacity="1" d=" M192.63900756835938,137.88600158691406 C192.63900756835938,137.88600158691406 214.31300354003906,130.37600708007812 214.31300354003906,130.37600708007812 C214.31300354003906,130.37600708007812 107.80599975585938,-177.01499938964844 107.80599975585938,-177.01499938964844 C107.80599975585938,-177.01499938964844 86.13200378417969,-169.50599670410156 86.13200378417969,-169.50599670410156 C86.13200378417969,-169.50599670410156 192.63900756835938,137.88600158691406 192.63900756835938,137.88600158691406z"></path></g><g opacity="1" transform="matrix(1,0,0,1,0,0)"><path fill="rgb(255,255,255)" fill-opacity="1" d=" M168.95700073242188,146.09100341796875 C168.95700073242188,146.09100341796875 178.76800537109375,142.69200134277344 178.76800537109375,142.69200134277344 C178.76800537109375,142.69200134277344 72.26100158691406,-164.69900512695312 72.26100158691406,-164.69900512695312 C72.26100158691406,-164.69900512695312 62.45000076293945,-161.3000030517578 62.45000076293945,-161.3000030517578 C62.45000076293945,-161.3000030517578 168.95700073242188,146.09100341796875 168.95700073242188,146.09100341796875z"></path></g></g></g><g mask="url(#__lottie_element_45_1)" style="display: block;"><g transform="matrix(1.7143000364303589,0,0,1.7143000364303589,300.00653076171875,299.9964904785156)" opacity="0.3"><g opacity="1" transform="matrix(1,0,0,1,0,0)"><path fill="rgb(255,255,255)" fill-opacity="1" d=" M-192.63900756835938,137.88600158691406 C-192.63900756835938,137.88600158691406 -214.31300354003906,130.37600708007812 -214.31300354003906,130.37600708007812 C-214.31300354003906,130.37600708007812 -107.80599975585938,-177.01499938964844 -107.80599975585938,-177.01499938964844 C-107.80599975585938,-177.01499938964844 -86.13200378417969,-169.50599670410156 -86.13200378417969,-169.50599670410156 C-86.13200378417969,-169.50599670410156 -192.63900756835938,137.88600158691406 -192.63900756835938,137.88600158691406z"></path></g><g opacity="1" transform="matrix(1,0,0,1,0,0)"><path fill="rgb(255,255,255)" fill-opacity="1" d=" M-168.95700073242188,146.09100341796875 C-168.95700073242188,146.09100341796875 -178.76800537109375,142.69200134277344 -178.76800537109375,142.69200134277344 C-178.76800537109375,142.69200134277344 -72.26100158691406,-164.69900512695312 -72.26100158691406,-164.69900512695312 C-72.26100158691406,-164.69900512695312 -62.45000076293945,-161.3000030517578 -62.45000076293945,-161.3000030517578 C-62.45000076293945,-161.3000030517578 -168.95700073242188,146.09100341796875 -168.95700073242188,146.09100341796875z"></path></g></g></g></g></svg>