<svg width="1085" height="1006" viewBox="0 0 1085 1006" fill="none" xmlns="http://www.w3.org/2000/svg">
<path opacity="0.5" d="M288.309 12.1978C179.687 105.187 162.854 281.025 89.2878 410.746C63.6787 455.884 30.5884 496.282 13.3239 546.357C-26.3126 660.975 28.2385 790.989 101.253 882.024C136.07 925.452 176.737 965.238 225.941 983.542C263.779 997.619 304.351 998.206 344.179 998.572L1041.95 1005.9C1119.86 1006.71 1206.42 1003.8 1262.44 942.363C1301.04 900.06 1316.72 838.278 1330.03 779.307C1346.38 706.846 1361.2 628.153 1335.76 559.138C1306.7 480.176 1233.21 435.429 1187.55 367.294C1113.46 256.904 1115.16 89.9376 1020.8 1.81128C976.756 -39.3192 918.632 -55.4488 861.995 -63.5136C755.219 -78.739 654.077 -49.999 549.219 -54.0069C459.588 -57.4284 362.667 -51.4653 288.309 12.1978Z" fill="#E7ECFF"/>
</svg>
